<svg width="100" height="100" viewBox="0 0 100 100" fill="none" xmlns="http://www.w3.org/2000/svg">
<path d="M56.7944 32.5592H82.1944C83.0978 32.5264 83.9988 32.6737 84.8447 32.9927C85.6906 33.3118 86.4645 33.796 87.1213 34.4172C87.7781 35.0385 88.3046 35.7843 88.6701 36.6111C89.0357 37.4379 89.2329 38.3293 89.2504 39.2332V82.5792H12.1044V39.2332C12.0371 38.3629 12.1543 37.4882 12.4484 36.6664C12.7425 35.8446 13.2068 35.0941 13.811 34.4641C14.4151 33.8341 15.1455 33.3387 15.9543 33.0105C16.7631 32.6822 17.6321 32.5284 18.5044 32.5592H43.2664" stroke="black" stroke-width="1.2" stroke-miterlimit="10"/>
<path d="M50 4V26.982M95 82.566H5V89.966C5.01161 91.0423 5.4487 92.0703 6.21579 92.8254C6.98288 93.5805 8.01763 94.0013 9.094 93.996H91.294C91.7765 94.0002 92.2551 93.9094 92.7024 93.7286C93.1498 93.5479 93.5572 93.2808 93.9013 92.9426C94.2455 92.6044 94.5196 92.2017 94.7081 91.7576C94.8966 91.3134 94.9958 90.8365 95 90.354V82.566ZM56.368 46.436V17.224H43.632V46.436H32.338L50 64.674L67.662 46.436H56.368Z" stroke="black" stroke-width="1.2" stroke-miterlimit="10"/>
</svg>
