<svg width="100" height="100" viewBox="0 0 100 100" fill="none" xmlns="http://www.w3.org/2000/svg">
<path d="M56.6498 33.8169H81.5093C82.3936 33.7847 83.2754 33.9292 84.1033 34.2419C84.9311 34.5546 85.6886 35.0293 86.3314 35.6382C86.9742 36.2472 87.4895 36.9782 87.8473 37.7887C88.2051 38.5992 88.3981 39.4729 88.4152 40.3589V82.8478H12.9106V40.3589C12.8448 39.5059 12.9595 38.6485 13.2474 37.8429C13.5352 37.0373 13.9896 36.3017 14.5809 35.6841C15.1722 35.0666 15.887 34.581 16.6786 34.2593C17.4702 33.9375 18.3207 33.7868 19.1745 33.8169H43.4096" stroke="black" stroke-width="1.2" stroke-miterlimit="10"/>
<path d="M49.9976 66.316V43.7884M94.0421 82.8328H5.95703V90.0865C5.9684 91.1415 6.39619 92.1492 7.14696 92.8894C7.89773 93.6295 8.91046 94.042 9.96392 94.0368H90.415C90.8872 94.0409 91.3556 93.9519 91.7935 93.7747C92.2313 93.5975 92.63 93.3357 92.9668 93.0042C93.3037 92.6727 93.572 92.278 93.7565 91.8426C93.941 91.4073 94.038 90.9398 94.0421 90.4668V82.8328ZM43.7671 23.6957V52.3321H56.2321V23.6957H67.2858L49.9996 5.82031L32.7134 23.6977L43.7671 23.6957Z" stroke="black" stroke-width="1.2" stroke-miterlimit="10"/>
</svg>
