<svg width="100" height="100" viewBox="0 0 100 100" fill="none" xmlns="http://www.w3.org/2000/svg">
<path d="M59.3741 65.7068H11.8014C10.7872 65.7146 9.78149 65.5215 8.84161 65.1387C7.90174 64.7558 7.04613 64.1907 6.32367 63.4755C5.60121 62.7604 5.02604 61.9092 4.63103 60.9707C4.23601 60.0322 4.02889 59.0247 4.02148 58.0057V18.7305C4.03751 16.6731 4.86606 14.7064 6.32497 13.2626C7.78387 11.8189 9.75371 11.0163 11.8014 11.0315H79.8962C81.9442 11.0163 83.9143 11.8191 85.3733 13.2633C86.8323 14.7075 87.6606 16.6748 87.6761 18.7326V25.9117M58.5434 86.7122H15.6337C14.8717 86.5061 14.1986 86.0534 13.7186 85.4241C13.2386 84.7948 12.9784 84.0241 12.9784 83.2312C12.9784 82.4384 13.2386 81.6677 13.7186 81.0384C14.1986 80.4091 14.8717 79.9564 15.6337 79.7503H58.889M45.7972 66.7527V79.1796" stroke="black" stroke-width="1.2" stroke-miterlimit="10"/>
<path d="M59.8828 36.535H94.9782M59.8828 79.7602H94.9782M15.9746 21.0312H28.7713V33.8887H15.9746V21.0312ZM38.1561 21.0312H50.9528V33.8887H38.1561V21.0312ZM15.9746 42.8551H28.7713V55.7126H15.9746V42.8551ZM38.1561 42.8551H50.9528V55.7126H38.1561V42.8551ZM94.9782 74.7886V85.6498C94.9782 86.7956 94.5253 87.8945 93.7191 88.705C92.9129 89.5154 91.8194 89.9709 90.679 89.9715H64.1821C63.0416 89.9709 61.9481 89.5154 61.1419 88.705C60.3357 87.8945 59.8828 86.7956 59.8828 85.6498V31.535C59.8828 30.3893 60.3358 29.2906 61.142 28.4805C61.9483 27.6704 63.0418 27.2153 64.1821 27.2153H90.677C91.8172 27.2153 92.9107 27.6704 93.717 28.4805C94.5232 29.2906 94.9762 30.3893 94.9762 31.535V74.7927L94.9782 74.7886Z" stroke="black" stroke-width="1.2" stroke-miterlimit="10"/>
<path d="M66.6816 69.2969H70.7242V73.3586H66.6816V69.2969ZM75.7774 69.2969H79.8199V73.3586H75.7774V69.2969ZM84.8731 69.2969H88.9157V73.3586H84.8731V69.2969Z" stroke="black" stroke-width="1.2" stroke-miterlimit="10"/>
</svg>
