<svg width="100" height="100" viewBox="0 0 100 100" fill="none" xmlns="http://www.w3.org/2000/svg">
<path d="M8 38.7551C21.3984 25.3567 56.8169 6.59888 91.3033 38.7551" stroke="black" stroke-width="1.5"/>
<path d="M17.9043 56.8122C28.2108 43.6242 55.4558 25.161 81.9838 56.8122" stroke="black" stroke-width="1.5"/>
<path d="M29.5547 69.6292C35.926 62.5957 52.7683 52.7486 69.1675 69.6292" stroke="black" stroke-width="1.5"/>
<circle cx="49.9451" cy="80.697" r="5.65795" stroke="black" stroke-width="1.5"/>
<circle cx="76" cy="30" r="15" fill="#D9D9D9"/>
<path d="M76.1203 38.9996C75.3983 38.9876 74.6762 38.8431 73.9542 38.5662C73.2321 38.2892 72.5731 37.8227 71.9771 37.1665C71.3811 36.5043 70.9026 35.6103 70.5415 34.4845C70.1805 33.3527 70 31.932 70 30.2222C70 28.5847 70.1461 27.1339 70.4384 25.8697C70.7307 24.5994 71.1547 23.5308 71.7106 22.6639C72.2665 21.791 72.937 21.1288 73.7221 20.6773C74.5129 20.2258 75.404 20 76.3954 20C77.3811 20 78.2579 20.2077 79.0258 20.6231C79.7994 21.0325 80.4298 21.6044 80.9169 22.3388C81.404 23.0733 81.7192 23.9191 81.8625 24.8763H79.765C79.5702 24.0455 79.192 23.3562 78.6304 22.8084C78.0688 22.2606 77.3238 21.9867 76.3954 21.9867C75.0315 21.9867 73.957 22.6097 73.1719 23.8559C72.3926 25.1021 72 26.8509 71.9943 29.1025H72.1318C72.4527 28.5908 72.8338 28.1543 73.2751 27.7931C73.7221 27.4259 74.2149 27.1429 74.7536 26.9443C75.2923 26.7456 75.8625 26.6463 76.4642 26.6463C77.4728 26.6463 78.3954 26.9111 79.2321 27.4409C80.0688 27.9647 80.7393 28.6901 81.2436 29.6172C81.7479 30.5383 82 31.5948 82 32.7868C82 33.9306 81.7564 34.9781 81.2693 35.9293C80.7822 36.8745 80.0974 37.627 79.2149 38.1869C78.3381 38.7407 77.3066 39.0117 76.1203 38.9996ZM76.1203 37.013C76.8424 37.013 77.49 36.8233 78.063 36.4441C78.6418 36.0648 79.0974 35.5561 79.4298 34.9179C79.7679 34.2798 79.937 33.5694 79.937 32.7868C79.937 32.0223 79.7736 31.3269 79.447 30.7008C79.1261 30.0687 78.6819 29.566 78.1146 29.1928C77.553 28.8195 76.9112 28.6329 76.1891 28.6329C75.6447 28.6329 75.1375 28.7473 74.6676 28.9761C74.1977 29.1988 73.7851 29.5058 73.4298 29.8971C73.0802 30.2884 72.8052 30.7369 72.6046 31.2426C72.404 31.7423 72.3037 32.2691 72.3037 32.8229C72.3037 33.5574 72.467 34.2437 72.7937 34.8818C73.1261 35.52 73.5788 36.0347 74.1519 36.426C74.7307 36.8173 75.3868 37.013 76.1203 37.013Z" fill="black"/>
</svg>
