<svg width="1002" height="162" viewBox="0 0 1002 162" fill="none" xmlns="http://www.w3.org/2000/svg">
<path fill-rule="evenodd" clip-rule="evenodd" d="M594.586 33.7955C592.372 33.7955 590.204 35.6406 589.768 37.8882L570.269 139.144C569.833 141.4 571.28 143.236 573.506 143.236H596.687C598.897 143.236 601.065 141.4 601.501 139.144L620.999 37.8882C621.436 35.6406 619.989 33.7955 617.766 33.7955H594.586Z" fill="white"/>
<path fill-rule="evenodd" clip-rule="evenodd" d="M375.041 52.1926C374.102 48.6032 372.034 45.3911 368.927 42.6403C365.9 39.9566 361.723 37.7761 356.519 36.1826C351.378 34.5976 340.941 34.0231 340.941 34.0231C338.727 33.8973 335.117 33.7966 332.902 33.7966H291.292C289.078 33.7966 286.91 35.6417 286.487 37.9019L266.976 139.141C266.539 141.401 267.999 143.25 270.209 143.25H312.418C314.632 143.25 318.255 143.145 320.457 143.032C320.457 143.032 331.183 142.445 336.895 140.872C342.627 139.304 347.55 137.17 351.542 134.532C355.576 131.882 358.754 128.75 361.014 125.231C363.262 121.722 364.281 118.359 364.281 118.359C364.935 116.157 365.832 112.522 366.269 110.261L374.525 67.3891C374.961 65.1415 375.477 61.4137 375.67 59.12C375.67 59.12 375.972 55.715 375.041 52.1926ZM330.86 115.859C328.395 117.855 321.17 118.51 321.17 118.51C318.956 118.715 315.354 118.874 313.14 118.874H306.133C303.918 118.874 302.463 117.029 302.899 114.782L313.014 62.2649C313.45 60.0047 315.618 58.1681 317.832 58.1681H325.434C327.648 58.1681 331.25 58.4071 333.439 58.709C333.439 58.709 340.576 59.6944 341.666 60.9902C343.226 62.8478 343.134 65.0367 343.134 65.0367C343.029 67.343 342.593 71.0708 342.157 73.3184L336.412 103.116C335.976 105.364 335.012 108.978 334.265 111.146C334.265 111.146 333.326 113.842 330.86 115.859Z" fill="white"/>
<path fill-rule="evenodd" clip-rule="evenodd" d="M456.961 98.8688C459.188 98.8688 461.343 97.0237 461.779 94.7761L464.887 78.6026C465.335 76.355 463.876 74.5057 461.662 74.5057H423.159C420.949 74.5057 419.49 72.6607 419.926 70.4005L421.499 62.2697C421.935 60.0095 424.09 58.1645 426.304 58.1645H468.753C470.967 58.1645 473.135 56.3194 473.558 54.0676L476.678 37.8983C477.114 35.6507 475.655 33.8014 473.441 33.8014H399.773C397.563 33.8014 395.395 35.6507 394.959 37.8983L375.46 139.15C375.024 141.397 376.471 143.242 378.681 143.242H452.349C454.563 143.242 456.731 141.397 457.167 139.15L460.287 122.976C460.723 120.728 459.268 118.871 457.054 118.871H414.605C412.391 118.871 410.944 117.038 411.38 114.778L413.653 102.974C414.089 100.714 416.244 98.8688 418.458 98.8688H456.961Z" fill="white"/>
<path fill-rule="evenodd" clip-rule="evenodd" d="M573.804 35.9042C573.322 35.812 571.154 35.4472 568.965 35.0907C568.965 35.0907 559.547 33.5518 553.228 33.0025C546.921 32.4741 540.945 32.2099 535.427 32.2099C526.747 32.2099 519.383 32.7844 513.534 33.9082C507.592 35.0572 502.614 36.9022 498.761 39.3888C494.836 41.9132 491.796 45.1966 489.712 49.1383C487.682 52.9919 486.122 57.7094 485.066 63.1564C483.942 69.0061 483.413 73.9039 483.518 77.7114C483.619 81.7831 484.789 85.2006 486.99 87.8717C489.15 90.4757 492.521 92.6101 497.016 94.2371C501.34 95.797 507.215 97.2982 514.494 98.6862C519.371 99.6297 523.178 100.477 525.803 101.211C528.282 101.898 530.047 102.67 531.079 103.492C531.884 104.146 532.248 104.88 532.24 105.811C532.215 107.152 531.976 109.023 531.515 111.363C531.116 113.438 530.588 115.157 529.946 116.453C529.347 117.648 528.479 118.588 527.284 119.355C526.047 120.135 524.361 120.684 522.26 120.961C520.025 121.271 517.098 121.431 513.542 121.431C507.156 121.431 501.076 120.961 495.478 120.022C489.838 119.07 482.793 117.338 482.793 117.338C480.637 116.81 478.595 116.306 478.264 116.214C477.933 116.122 476.897 117.749 475.958 119.837L469.903 133.44C468.963 135.528 468.54 137.374 468.93 137.545C469.328 137.717 471.383 138.464 473.471 139.185C473.471 139.185 480.797 141.743 487.783 142.984C494.744 144.221 501.973 144.842 509.265 144.842C518.704 144.842 526.663 144.188 532.928 142.892C539.268 141.584 544.547 139.521 548.581 136.766C552.666 133.969 555.811 130.446 557.932 126.282C559.996 122.236 561.568 117.476 562.6 112.13C563.606 106.876 564.214 102.406 564.398 98.8246C564.596 94.9164 563.598 91.5786 561.438 88.8697C559.362 86.2908 556.004 84.0432 551.416 82.194C547.013 80.416 540.602 78.6507 532.366 76.9314C527.607 75.9544 524.038 75.1535 521.468 74.4741C518.474 73.6858 517.052 72.8807 516.377 72.3523C515.618 71.7443 515.287 71.0566 515.299 70.1173C515.32 68.8006 515.572 66.8717 516.054 64.406C516.389 62.6616 516.872 61.2066 517.48 60.0702C518.016 59.0512 518.784 58.2587 519.82 57.6506C520.918 57.0091 522.411 56.5604 524.256 56.3214C526.24 56.0656 528.797 55.9314 531.838 55.9314C537.402 55.9314 542.769 56.1704 547.801 56.6401C552.825 57.1097 561.773 58.3845 561.773 58.3845C563.962 58.6948 566.038 58.9925 566.374 59.0512C566.717 59.0973 567.59 57.3655 568.311 55.185L573.355 40.022C574.081 37.8541 574.286 35.9965 573.804 35.9042Z" fill="white"/>
<path fill-rule="evenodd" clip-rule="evenodd" d="M689.721 36.9028C691.201 35.1919 690.606 33.7956 688.392 33.7956H660.645C658.43 33.7956 655.428 35.2045 653.969 36.9363L614.342 84.0061C612.887 85.7379 612.51 88.8367 613.483 90.8998L636.722 139.496C637.707 141.551 640.324 143.236 642.534 143.236H669.639C671.853 143.236 672.826 141.572 671.794 139.529L647.582 91.3485C646.563 89.3064 646.928 86.2453 648.421 84.5344L689.721 36.9028Z" fill="white"/>
<path fill-rule="evenodd" clip-rule="evenodd" d="M791.722 37.8941C792.158 35.6339 790.703 33.8014 788.497 33.8014H698.119C695.896 33.8014 693.737 35.6339 693.301 37.8941L690.181 54.0676C689.758 56.3152 691.204 58.1603 693.418 58.1603H718.972C721.186 58.1603 722.641 60.0053 722.205 62.2655L707.386 139.133C706.95 141.393 708.409 143.242 710.623 143.242H733.812C736.014 143.242 738.182 141.393 738.618 139.133L753.424 62.2655C753.86 60.0053 756.028 58.1603 758.242 58.1603H783.796C786.01 58.1603 788.178 56.3152 788.614 54.0676L791.722 37.8941Z" fill="#E6AE18"/>
<path fill-rule="evenodd" clip-rule="evenodd" d="M888.678 54.0344C887.6 49.883 885.319 46.109 881.897 42.8383C878.526 39.6052 873.792 36.9928 867.837 35.0639C861.942 33.1727 854.398 32.2083 845.403 32.2083C836.56 32.2083 828.706 33.1601 822.042 35.0513C815.354 36.9551 809.676 39.5256 805.148 42.6915C800.594 45.87 796.971 49.5392 794.375 53.5773C791.771 57.6029 790.442 62.0394 790.442 62.0394C789.779 64.2325 788.869 67.8764 788.437 70.124L781.464 106.3C781.036 108.56 780.52 112.275 780.336 114.569C780.336 114.569 779.984 118.917 781.036 123.01C782.114 127.165 784.387 130.935 787.804 134.206C791.188 137.439 795.948 140.056 801.982 141.98C807.932 143.876 815.446 144.836 824.311 144.836C833.28 144.836 841.172 143.884 847.777 141.993C854.385 140.102 860.029 137.519 864.558 134.353C869.125 131.178 872.735 127.509 875.352 123.471C877.931 119.433 879.285 115.005 879.285 115.005C879.939 112.816 880.832 109.168 881.268 106.92L888.242 70.7446C888.678 68.4845 889.194 64.7692 889.378 62.4755C889.378 62.4755 889.735 58.1396 888.678 54.0344ZM828.408 120.477C821.661 120.477 817.019 119.387 814.587 117.252C812.28 115.235 812.255 113.126 812.255 113.126C812.213 110.82 812.545 107.092 812.993 104.844L819.149 72.8203C819.585 70.5727 820.654 66.9833 821.501 64.8614C821.501 64.8614 822.625 62.0981 825.951 59.9176C829.335 57.7035 834.509 56.5671 841.311 56.5671C848.041 56.5671 852.7 57.6574 855.132 59.7918C857.434 61.8087 857.472 63.9221 857.472 63.9221C857.493 66.2285 857.17 69.9521 856.738 72.2039L850.565 104.224C850.129 106.484 849.072 110.061 848.213 112.174C848.213 112.174 847.089 114.95 843.776 117.127C840.38 119.353 835.209 120.477 828.408 120.477Z" fill="#E6AE18"/>
<path fill-rule="evenodd" clip-rule="evenodd" d="M999.375 49.6923C998.344 46.6061 996.578 43.9349 994.113 41.7544C991.106 39.1043 986.942 37.0873 981.726 35.758C976.631 34.4497 966.424 33.9801 966.424 33.9801C964.223 33.8878 960.596 33.7955 958.382 33.7955H914.147C911.92 33.7955 909.765 35.6406 909.329 37.8924L889.821 139.144C889.385 141.391 890.84 143.236 893.054 143.236H916.235C918.449 143.236 920.617 141.391 921.049 139.144L925.682 115.091C926.119 112.843 928.286 110.998 930.501 110.998H942.615C942.615 110.998 992.117 117.624 1000.18 77.8167C1002.65 65.6101 1001.76 56.0242 999.375 49.6923ZM958.004 86.4424C956.101 86.8743 954.658 86.9455 954.658 86.9455C952.444 87.0252 948.817 87.1049 946.615 87.1049H935.101C932.887 87.1049 931.431 85.2598 931.868 83.0122L935.868 62.2638C936.296 60.0036 938.459 58.1586 940.673 58.1586H952.788C954.289 58.1586 956.398 58.2718 958.302 58.4186C961.401 58.4773 966.173 58.993 970.45 61.1945C977.344 64.7504 978.971 83.1716 958.004 86.4424Z" fill="#E6AE18"/>
<path fill-rule="evenodd" clip-rule="evenodd" d="M99.1821 10.6569C95.7184 13.5252 93.2989 17.3536 92.3722 21.4127L87.3151 43.6204C85.3903 52.0154 90.5146 58.8379 98.7124 58.8379H120.417C124.396 58.8379 128.476 57.2654 131.94 54.3888C135.412 51.5206 137.823 47.6795 138.75 43.6204L143.82 21.4127C145.723 13.0304 140.608 6.19528 132.422 6.19528H110.718C106.738 6.20786 102.646 7.78035 99.1821 10.6569Z" fill="white"/>
<path fill-rule="evenodd" clip-rule="evenodd" d="M210.784 16.1442H191.486C187.956 16.1442 184.308 17.5531 181.238 20.0984C178.164 22.6564 176.017 26.0529 175.183 29.6633L172.44 41.6771L172.394 41.61C171.124 46.7007 167.341 57.2846 156.309 66.4343C141.586 78.6452 127.518 77.0518 126.704 77.0518H92.0425V77.0643C91.208 77.0518 76.4266 78.6452 67.2769 66.4343C61.5111 58.7396 61.3266 50.0386 62.0394 44.4405L68.0233 18.1947C70.317 8.16432 64.1948 -8.36743e-06 54.3993 -8.36743e-06H28.4553C23.7085 0.0125715 18.8108 1.90374 14.672 5.33386C10.5332 8.77236 7.64402 13.3347 6.5328 18.1947L0.477683 44.7382C-1.80347 54.7602 4.30616 62.9245 14.0975 62.9245H38.6241V62.9497C43.8992 63.3481 52.5794 65.3231 58.7351 73.5294C67.8723 85.7319 62.9536 100.501 62.7607 101.348L54.676 136.81C53.1958 143.302 54.286 149.39 57.7162 153.974C61.1547 158.574 66.5305 161.094 72.8707 161.094H107.532C113.873 161.094 120.41 158.574 125.937 153.974C131.476 149.39 135.326 143.289 136.818 136.81L144.903 101.348C145.083 100.501 146.895 85.7319 161.618 73.5294C171.661 65.1847 181.397 63.2936 186.832 62.9245H200.099C203.643 62.9245 207.274 61.5156 210.348 58.9703C213.434 56.4124 215.577 53.0074 216.403 49.4054L220.907 29.6633C222.605 22.2077 218.064 16.1442 210.784 16.1442Z" fill="#E6AE18"/>
</svg>
